<?xml version="1.0" encoding="UTF-8" standalone="no"?>
<svg
   width="110.65707mm"
   height="74.44001mm"
   viewBox="0 0 110.65707 74.44001"
   version="1.1"
   id="svg1435"
   inkscape:version="1.0.2 (e86c870879, 2021-01-15)"
   sodipodi:docname="logo final.svg"
   xmlns:inkscape="http://www.inkscape.org/namespaces/inkscape"
   xmlns:sodipodi="http://sodipodi.sourceforge.net/DTD/sodipodi-0.dtd"
   xmlns:xlink="http://www.w3.org/1999/xlink"
   xmlns="http://www.w3.org/2000/svg"
   xmlns:svg="http://www.w3.org/2000/svg"
   xmlns:rdf="http://www.w3.org/1999/02/22-rdf-syntax-ns#"
   xmlns:cc="http://creativecommons.org/ns#"
   xmlns:dc="http://purl.org/dc/elements/1.1/">
  <defs
     id="defs1429">
    <linearGradient
       inkscape:collect="always"
       xlink:href="#linearGradient1032"
       id="linearGradient1026"
       x1="228.97168"
       y1="389.17044"
       x2="208.81827"
       y2="402.36057"
       gradientUnits="userSpaceOnUse"
       gradientTransform="matrix(0.91079551,0,0,0.89264657,14.889641,47.282043)" />
    <linearGradient
       inkscape:collect="always"
       id="linearGradient1032">
      <stop
         style="stop-color:#4bdbff;stop-opacity:0.96078432"
         offset="0"
         id="stop1028" />
      <stop
         style="stop-color:#7587ff;stop-opacity:1"
         offset="1"
         id="stop1030" />
    </linearGradient>
  </defs>
  <sodipodi:namedview
     id="base"
     pagecolor="#ffffff"
     bordercolor="#666666"
     borderopacity="1.0"
     inkscape:pageopacity="0.0"
     inkscape:pageshadow="2"
     inkscape:zoom="1.4"
     inkscape:cx="465.84478"
     inkscape:cy="221.65925"
     inkscape:document-units="mm"
     inkscape:current-layer="text1502"
     inkscape:document-rotation="0"
     showgrid="false"
     inkscape:window-width="1816"
     inkscape:window-height="1030"
     inkscape:window-x="86"
     inkscape:window-y="0"
     inkscape:window-maximized="0"
     inkscape:showpageshadow="2"
     inkscape:pagecheckerboard="0"
     inkscape:deskcolor="#d1d1d1" />
  <metadata
     id="metadata1432">
    <rdf:RDF>
      <cc:Work
         rdf:about="">
        <dc:format>image/svg+xml</dc:format>
        <dc:type
           rdf:resource="http://purl.org/dc/dcmitype/StillImage" />
        <dc:title />
      </cc:Work>
    </rdf:RDF>
  </metadata>
  <g
     inkscape:label="Calque 1"
     inkscape:groupmode="layer"
     id="layer1"
     transform="translate(-40.677423,-28.547845)">
    <g
       id="g927"
       inkscape:export-xdpi="81"
       inkscape:export-ydpi="81"
       transform="translate(26.730537,-292.46331)">
      <g
         aria-label="Yzel"
         transform="matrix(1.0136307,0,0,0.98655259,-275.88526,-76.123655)"
         id="text1502"
         style="font-size:75.1626px;line-height:1.25;font-family:'Jellyka Delicious Cake';-inkscape-font-specification:'Jellyka Delicious Cake';letter-spacing:-0.082901px;fill:#7587ff;fill-opacity:1;stroke:none;stroke-width:0.385787">
        <path
           d="m 333.89909,454.69671 q 1.72874,0.6013 3.53264,1.05228 1.87907,0.37581 3.75813,0.37581 1.95423,0 3.15683,-1.05227 1.27776,-1.12744 2.10455,-3.30716 0.22549,-0.15032 0.52614,0 0.30065,0.15033 0.15033,0.45098 -1.05228,2.85618 -2.78102,4.58492 -1.65358,1.65357 -3.98362,1.65357 -1.57841,0 -3.15683,-0.30065 -1.57841,-0.37581 -3.30715,-0.97711 -0.90195,-0.37581 -1.72874,-0.0752 -0.75163,0.30065 -1.87907,1.35292 -0.37581,0 -0.6013,-0.37581 -0.22548,-0.37581 0,-0.75163 1.65358,-1.65357 3.60781,-3.6078 2.02939,-1.95423 4.05878,-3.98362 2.02939,-2.02939 3.90845,-3.90845 1.95423,-1.87907 3.53265,-3.45748 -1.65358,-0.37582 -3.68297,-0.6013 -2.02939,-0.22549 -3.45748,-0.22549 -2.17972,0 -3.00651,2.4052 -0.15032,0.22549 -0.45097,0.0752 -0.30065,-0.15032 -0.30065,-0.37581 0.6013,-1.65358 1.87906,-3.0065 1.27777,-1.42809 3.232,-1.42809 1.72874,0 3.30715,0.37581 1.57841,0.30065 2.63069,0.6013 0.82679,0.15033 1.42809,0 0.6013,-0.22549 1.2026,-0.75162 0.22549,-0.22549 0.67646,-0.22549 0.90196,0 0.75163,0.6013 -4.05878,3.90845 -7.96723,7.74175 -3.8333,3.75813 -7.14045,7.14044 z"
           style="font-style:normal;font-variant:normal;font-weight:normal;font-stretch:normal;font-size:75.1626px;font-family:Tangerine;-inkscape-font-specification:Tangerine;fill:#7587ff;fill-opacity:1;stroke:none;stroke-width:0.385787"
           id="path911" />
        <path
           d="m 361.52959,442.30068 q 0,1.05228 -0.82679,1.95423 -0.82679,0.90195 -2.25488,1.65357 -1.42809,0.67647 -3.30715,1.27777 -1.80391,0.6013 -3.8333,1.12744 -0.0752,0.82679 -0.15032,1.65357 0,0.82679 0,1.80391 0,1.87906 0.82679,3.15683 0.82679,1.27776 2.33004,1.27776 1.50325,0 2.78101,-0.75163 1.35293,-0.75162 2.40521,-2.02939 0.30065,-0.15032 0.45097,0.0752 0.15033,0.22548 0,0.52613 -1.27776,1.72874 -3.23199,3.00651 -1.87906,1.2026 -3.98362,1.2026 -1.95422,0 -3.23199,-1.27776 -1.2026,-1.27777 -1.2026,-3.75813 0,-2.25488 0.82679,-4.73525 0.82679,-2.55553 2.17971,-4.66008 1.35293,-2.10455 3.08167,-3.45748 1.8039,-1.35292 3.75813,-1.35292 1.42809,0 2.4052,1.05227 0.97712,0.97712 0.97712,2.25488 z m -4.96073,-1.35293 q -1.72874,0 -3.08167,1.50325 -1.35293,1.50326 -1.95423,4.73525 3.60781,-0.52614 5.26138,-1.50325 1.72874,-1.05228 1.72874,-2.33004 0,-1.05228 -0.52614,-1.72874 -0.52613,-0.67647 -1.42808,-0.67647 z"
           style="font-style:normal;font-variant:normal;font-weight:normal;font-stretch:normal;font-size:75.1626px;font-family:Tangerine;-inkscape-font-specification:Tangerine;fill:#7587ff;fill-opacity:1;stroke:none;stroke-width:0.385787"
           id="path913" />
        <path
           d="m 392.40465,402.54804 q 1.95423,0 2.48037,1.8039 0.6013,1.8039 -0.45098,3.8333 -0.15032,0.15032 -0.37581,0 -0.22549,-0.15033 -0.30065,-0.37582 0.15032,-0.90195 -0.67647,-1.50325 -0.75162,-0.6013 -2.4052,-0.6013 -3.23199,0 -6.38882,2.70585 -3.15683,2.70586 -6.08817,7.06529 -2.93134,4.28427 -5.48687,9.62081 -2.48037,5.33654 -4.35943,10.67309 -1.8039,5.26138 -2.85618,9.99662 -1.05228,4.66008 -1.05228,7.59143 0,2.25487 1.27777,2.25487 0.90195,0 1.72874,-0.75162 0.90195,-0.75163 2.02939,-2.25488 0.22549,-0.15032 0.37581,0.0752 0.22549,0.15033 0.15033,0.45098 -1.50326,2.33004 -3.30716,3.83329 -1.8039,1.42809 -3.08166,1.42809 -0.97712,0 -1.57842,-0.75163 -0.6013,-0.82678 -0.6013,-2.17971 0,-2.10455 0.75163,-5.41171 0.75162,-3.38231 2.10455,-7.51626 1.35293,-4.13394 3.23199,-8.6437 1.95423,-4.58492 4.20911,-9.01951 2.25487,-4.43459 4.73524,-8.49337 2.55553,-4.05878 5.18622,-7.14045 2.70585,-3.08167 5.41171,-4.88557 2.70585,-1.8039 5.33654,-1.8039 z"
           style="font-style:normal;font-variant:normal;font-weight:normal;font-stretch:normal;font-size:75.1626px;font-family:Tangerine;-inkscape-font-specification:Tangerine;fill:#7587ff;fill-opacity:1;stroke:none;stroke-width:0.385787"
           id="path915" />
      </g>
      <text
         xml:space="preserve"
         style="font-size:10.8406px;line-height:1.25;font-family:'Jellyka Delicious Cake';-inkscape-font-specification:'Jellyka Delicious Cake';fill:#54caff;fill-opacity:0.968627;stroke:#ffffff;stroke-width:0.212955"
         x="56.989384"
         y="391.10614"
         id="text1486"
         transform="scale(1.0162303,0.98402891)"
         inkscape:export-xdpi="81"
         inkscape:export-ydpi="81"
         inkscape:export-filename="C:\Users\33665\path1488.png"><tspan
           sodipodi:role="line"
           id="tspan1484"
           x="56.989384"
           y="391.10614"
           style="font-style:normal;font-variant:normal;font-weight:normal;font-stretch:normal;font-family:Bellota;-inkscape-font-specification:Bellota;fill:#54caff;fill-opacity:0.968627;stroke:#ffffff;stroke-width:0.212955">Conseils</tspan></text>
      <g
         id="g976"
         transform="matrix(1.0254295,0,0,1.0153098,-88.329864,-93.161296)">
        <g
           id="g955"
           style="fill:#808080"
           transform="translate(26.726953,4.543582)">
          <g
             id="g922"
             transform="translate(-91.940718,14.432554)"
             style="fill:#000000">
            <g
               id="g940"
               style="fill:#000000"
               transform="translate(3.4962798,12.945685)">
              <path
                 style="opacity:1;fill:url(#linearGradient1026);fill-opacity:1;stroke:none;stroke-width:0.81716;stroke-linecap:round;stroke-linejoin:round;stroke-miterlimit:4;stroke-dasharray:0.0145287, 0.0145287;stroke-dashoffset:0;stroke-opacity:1;paint-order:stroke markers fill"
                 d="m 207.00458,404.10477 c 0.46012,-0.81276 1.01517,-1.58746 1.61293,-2.18837 0.35804,-0.35992 0.73139,-0.65749 1.10887,-0.86358 0.76585,-0.41812 2.48841,-1.20667 3.90618,-1.50827 0.42222,-0.16459 1.56059,-0.33611 1.56059,-0.33611 0,0 -2.12721,0.14729 -4.17877,-0.46271 -2.84211,-0.84537 -3.89016,-1.45188 -5.3306,-3.08459 -4.59347,-6.02579 -6.43129,-11.243 -4.37119,-16.36881 0.33794,1.6315 2.51035,5.0366 3.69794,5.93952 4.201,3.19401 7.60066,2.60496 11.06809,3.90563 2.23864,0.85318 2.9892,1.33081 3.52887,2.1694 0.22861,0.35523 0.54176,0.42892 0.54176,0.42892 0,0 0.3107,-0.33054 0.25709,-0.78721 -0.0388,-0.6335 -0.0325,-1.10815 0.0113,-1.51058 0.15897,-1.4758 0.59675,-1.92241 1.25287,-2.63794 0.46134,-0.50312 1.30348,-0.87928 1.76366,-1.02921 0.87305,-0.28441 1.79808,-0.1879 2.43263,0.0928 0.77576,0.34302 1.61024,1.16795 2.02483,2.28159 0.17952,0.48313 0.23838,0.8001 0.27575,1.17309 0.0173,0.17386 -0.0621,0.36654 0.0153,0.58941 l 0.85382,0.42454 c 0.46962,0.2336 1.7401,0.78875 2.82329,1.23388 1.08319,0.44511 3.30472,1.35068 3.27754,1.37942 -0.0279,0.0288 -2.69935,-0.87675 -4.2793,-1.37917 l -2.8725,-0.91347 -0.43074,0.53302 c -0.30021,0.37126 -0.76974,0.70395 -1.54773,1.09649 -0.61428,0.30992 -1.19907,0.68735 -1.29948,0.83875 -0.25807,0.38939 -0.24924,0.95651 0.033,2.05949 0.94805,3.70458 0.0397,6.07766 -3.20161,8.3648 -3.69453,2.19258 -6.54079,1.31071 -12.37954,7.7137 -3.04893,3.7534 -5.4814,7.814 -7.36726,12.16039 -2.11614,4.87716 -5.58084,10.55466 -8.48885,14.7689 -5.79225,8.0311 -16.07161,13.60165 -23.64659,10.03372 -4.07573,-2.12377 -9.94316,-8.13095 -7.70549,-12.46626 0.61758,-1.19654 2.9568,-1.11352 4.08815,-0.35945 1.62864,1.08553 0.62038,3.06471 0.64153,5.31422 0.0199,2.10982 0.60832,4.98473 2.59843,5.44957 12.92391,3.01869 26.91972,-12.20608 31.34684,-24.12659 0.19038,-0.52071 -4.42192,4.86474 -7.13296,6.69543 -1.52985,1.03307 -3.21437,1.98262 -5.03595,2.34048 -13.99703,1.40393 -3.29889,-21.10558 -1.00468,-26.7901 0.56006,-1.3621 1.26447,-3.30686 1.38557,-4.27639 0.11014,-0.99212 -0.0976,-2.51824 -1.07407,-2.83504 -1.87714,-0.60905 -2.98899,0.84843 -4.97524,3.16604 -2.9411,3.43176 -4.56274,10.02282 -6.67235,7.41485 -3.46721,-4.28629 5.25767,-12.34439 10.80027,-12.39159 1.39349,-0.0119 2.77248,1.32004 3.06422,2.77427 0.92846,6.72173 -5.51614,17.05567 -6.26123,24.53142 -0.20626,2.06942 0.17553,4.20518 1.7216,5.24035 1.87087,1.25266 4.92104,0.85914 6.78484,-0.40359 4.32257,-2.92852 7.69874,-7.42171 10.4089,-11.9296 2.11313,-3.51484 3.27857,-9.53882 4.36919,-11.46524 z"
                 id="path1514"
                 sodipodi:nodetypes="sssccsccscsccsasssscsssscssscccsccassacacccasascsasass"
                 inkscape:export-xdpi="81"
                 inkscape:export-ydpi="81"
                 inkscape:export-filename="C:\Users\33665\path1488.png" />
            </g>
          </g>
        </g>
      </g>
    </g>
  </g>
</svg>
